%
M48
M72
T01C0.0200
T02C0.0236
T03C0.0240
T04C0.0315
T05C0.0440
T06C0.0500
%
T01
X5117Y3873
X6567Y2673
X6567Y2673
T02
X5117Y3873
X5317Y6923
X6317Y7473
X6317Y7473
X9523Y2997
X9523Y2249
T03
X8687Y1803
X8297Y2133
X9067Y1293
X7097Y1613
X6397Y1943
X5817Y2753
X6537Y3243
X6907Y2923
X8917Y3693
X9337Y3953
X9777Y4193
X9357Y5583
X8967Y6123
X9407Y6563
X8967Y7263
X7417Y7093
X6867Y7483
X6927Y6283
X7197Y5623
X6467Y5363
X5747Y5603
T04
X10317Y5454
X10317Y6045
X10317Y6635
X10313Y7226
X10317Y4864
X10317Y4273
T05
X5517Y4823
X5517Y7823
T06
X5317Y873
X10367Y873
M30
